<?xml version="1.0" encoding="UTF-8"?><svg id="a" xmlns="http://www.w3.org/2000/svg" viewBox="0 0 90.55 121.85"><defs><style>.b{fill:#030303;}.c{fill:#fff;}.d{fill:#9794c6;}</style></defs><path class="b" d="M79.86,121.85H10.69c-5.89,0-10.69-4.79-10.69-10.69V10.69C0,4.79,4.79,0,10.69,0H79.86c5.89,0,10.69,4.79,10.69,10.69V111.16c0,5.89-4.79,10.69-10.69,10.69ZM10.69,4c-3.69,0-6.69,3-6.69,6.69V111.16c0,3.69,3,6.69,6.69,6.69H79.86c3.69,0,6.69-3,6.69-6.69V10.69c0-3.69-3-6.69-6.69-6.69H10.69ZM30.13,15.78h-13.69c-2.11,0-3.83,1.71-3.83,3.83v13.69c0,2.11,1.71,3.83,3.83,3.83h13.69c2.11,0,3.83-1.71,3.83-3.83v-13.69c0-2.11-1.71-3.83-3.83-3.83Zm-1.25,8.15l-5.64,7.45c-.36,.47-.91,.76-1.5,.79-.03,0-.06,0-.09,0-.56,0-1.1-.24-1.48-.65l-2.35-2.58c-.74-.82-.69-2.08,.13-2.83,.82-.74,2.08-.69,2.83,.13l.73,.8,4.19-5.54c.67-.88,1.92-1.05,2.8-.39,.88,.67,1.05,1.92,.39,2.8Zm1.25,26.44h-13.69c-2.11,0-3.83,1.71-3.83,3.83v13.69c0,2.11,1.71,3.83,3.83,3.83h13.69c2.11,0,3.83-1.71,3.83-3.83v-13.69c0-2.11-1.71-3.83-3.83-3.83Zm-1.25,8.15l-5.64,7.45c-.36,.47-.91,.76-1.5,.79-.03,0-.06,0-.09,0-.56,0-1.1-.24-1.48-.65l-2.35-2.58c-.74-.82-.69-2.08,.13-2.83,.82-.74,2.08-.69,2.83,.13l.73,.8,4.19-5.54c.67-.88,1.92-1.05,2.8-.39,.88,.67,1.05,1.92,.39,2.8Zm1.25,26.3h-13.69c-2.11,0-3.83,1.71-3.83,3.83v13.69c0,2.11,1.71,3.83,3.83,3.83h13.69c2.11,0,3.83-1.71,3.83-3.83v-13.69c0-2.11-1.71-3.83-3.83-3.83Zm-1.25,8.15l-5.64,7.45c-.36,.47-.91,.76-1.5,.79-.03,0-.06,0-.09,0-.56,0-1.1-.24-1.48-.65l-2.35-2.58c-.74-.82-.69-2.08,.13-2.83,.82-.74,2.08-.69,2.83,.13l.73,.8,4.19-5.54c.67-.88,1.92-1.05,2.8-.39,.88,.67,1.05,1.92,.39,2.8ZM82.31,30.18H41.05v7.62h41.26v-7.62Zm0,27.32H41.05v7.62h41.26v-7.62Zm0,27.32H41.05v7.62h41.26v-7.62Z"/><g><rect class="d" x="12.61" y="15.73" width="21.34" height="21.34" rx="3.83" ry="3.83"/><path class="c" d="M28.88,23.88l-5.64,7.45c-.36,.47-.91,.76-1.5,.79-.03,0-.06,0-.09,0-.56,0-1.1-.24-1.48-.65l-2.35-2.58c-.74-.82-.69-2.08,.13-2.83,.82-.74,2.08-.69,2.83,.13l.73,.8,4.19-5.54c.67-.88,1.92-1.05,2.8-.39,.88,.67,1.05,1.92,.39,2.8Z"/></g><g><rect class="d" x="12.61" y="50.32" width="21.34" height="21.34" rx="3.83" ry="3.83"/><path class="c" d="M28.88,58.47l-5.64,7.45c-.36,.47-.91,.76-1.5,.79-.03,0-.06,0-.09,0-.56,0-1.1-.24-1.48-.65l-2.35-2.58c-.74-.82-.69-2.08,.13-2.83,.82-.74,2.08-.69,2.83,.13l.73,.8,4.19-5.54c.67-.88,1.92-1.05,2.8-.39,.88,.67,1.05,1.92,.39,2.8Z"/></g><g><rect class="d" x="12.61" y="84.78" width="21.34" height="21.34" rx="3.83" ry="3.83"/><path class="c" d="M28.88,92.93l-5.64,7.45c-.36,.47-.91,.76-1.5,.79-.03,0-.06,0-.09,0-.56,0-1.1-.24-1.48-.65l-2.35-2.58c-.74-.82-.69-2.08,.13-2.83,.82-.74,2.08-.69,2.83,.13l.73,.8,4.19-5.54c.67-.88,1.92-1.05,2.8-.39,.88,.67,1.05,1.92,.39,2.8Z"/></g></svg>