<svg width="34" height="46" viewBox="0 0 34 46" fill="none" xmlns="http://www.w3.org/2000/svg">
<g opacity="0.3">
<path d="M29.9861 46H4.01391C1.80232 46 0 44.1917 0 41.9644V4.03562C0 1.80829 1.79856 0 4.01391 0H29.9861C32.1977 0 34 1.80829 34 4.03562V41.9644C34 44.1879 32.2014 46 29.9861 46ZM4.01391 1.51005C2.62838 1.51005 1.50193 2.64259 1.50193 4.03562V41.9644C1.50193 43.3574 2.62838 44.4899 4.01391 44.4899H29.9861C31.3716 44.4899 32.4981 43.3574 32.4981 41.9644V4.03562C32.4981 2.64259 31.3716 1.51005 29.9861 1.51005H4.01391ZM11.3133 5.95716H6.17294C5.38067 5.95716 4.73484 6.60271 4.73484 7.40304V12.5712C4.73484 13.3677 5.37692 14.0171 6.17294 14.0171H11.3133C12.1056 14.0171 12.7514 13.3715 12.7514 12.5712V7.40304C12.7514 6.60648 12.1093 5.95716 11.3133 5.95716ZM10.844 9.03389L8.72623 11.8464C8.59105 12.0238 8.38454 12.1333 8.163 12.1446C8.15174 12.1446 8.14047 12.1446 8.12921 12.1446C7.91894 12.1446 7.71618 12.054 7.5735 11.8992L6.69111 10.9252C6.41325 10.6157 6.43203 10.14 6.73992 9.85687C7.04782 9.57751 7.52093 9.59639 7.80254 9.90595L8.07664 10.208L9.64992 8.11654C9.90149 7.78433 10.3708 7.72015 10.7013 7.96931C11.0317 8.22224 11.0955 8.69413 10.8477 9.02634L10.844 9.03389ZM11.3133 19.0153H6.17294C5.38067 19.0153 4.73484 19.6609 4.73484 20.4612V25.6294C4.73484 26.4259 5.37692 27.0753 6.17294 27.0753H11.3133C12.1056 27.0753 12.7514 26.4297 12.7514 25.6294V20.4612C12.7514 19.6647 12.1093 19.0153 11.3133 19.0153ZM10.844 22.0921L8.72623 24.9046C8.59105 25.082 8.38454 25.1915 8.163 25.2028C8.15174 25.2028 8.14047 25.2028 8.12921 25.2028C7.91894 25.2028 7.71618 25.1122 7.5735 24.9574L6.69111 23.9834C6.41325 23.6739 6.43203 23.1982 6.73992 22.9151C7.04782 22.6357 7.52093 22.6546 7.80254 22.9641L8.07664 23.2661L9.64992 21.1747C9.90149 20.8425 10.3708 20.7783 10.7013 21.0275C11.0317 21.2804 11.0955 21.7523 10.8477 22.0845L10.844 22.0921ZM11.3133 32.0207H6.17294C5.38067 32.0207 4.73484 32.6662 4.73484 33.4666V38.6347C4.73484 39.4313 5.37692 40.0806 6.17294 40.0806H11.3133C12.1056 40.0806 12.7514 39.435 12.7514 38.6347V33.4666C12.7514 32.67 12.1093 32.0207 11.3133 32.0207ZM10.844 35.0974L8.72623 37.9099C8.59105 38.0873 8.38454 38.1968 8.163 38.2081C8.15174 38.2081 8.14047 38.2081 8.12921 38.2081C7.91894 38.2081 7.71618 38.1175 7.5735 37.9627L6.69111 36.9888C6.41325 36.6792 6.43203 36.2035 6.73992 35.9204C7.04782 35.641 7.52093 35.6599 7.80254 35.9695L8.07664 36.2715L9.64992 34.1801C9.90149 33.8478 10.3708 33.7837 10.7013 34.0328C11.0317 34.2858 11.0955 34.7577 10.8477 35.0899L10.844 35.0974ZM30.906 11.3934H15.4136V14.27H30.906V11.3934ZM30.906 21.707H15.4136V24.5837H30.906V21.707ZM30.906 32.0207H15.4136V34.8973H30.906V32.0207Z" fill="#020202"/>
<path d="M11.5642 6H6.4358C5.64283 6 5 6.64283 5 7.4358V12.5642C5 13.3572 5.64283 14 6.4358 14H11.5642C12.3572 14 13 13.3572 13 12.5642V7.4358C13 6.64283 12.3572 6 11.5642 6Z" fill="#9794C6"/>
<path d="M11.0956 9.05528L8.98126 11.8482C8.8463 12.0244 8.64011 12.1331 8.41893 12.1443C8.40769 12.1443 8.39644 12.1443 8.38519 12.1443C8.17526 12.1443 7.97282 12.0543 7.83037 11.9006L6.94939 10.9334C6.67198 10.626 6.69072 10.1537 6.99813 9.87253C7.30553 9.59511 7.77788 9.61386 8.05905 9.92126L8.33271 10.2212L9.90347 8.14432C10.1546 7.81442 10.6232 7.75069 10.9531 7.99811C11.283 8.24928 11.3468 8.71789 11.0993 9.04778L11.0956 9.05528Z" fill="white"/>
<path d="M11.5642 19H6.4358C5.64283 19 5 19.6428 5 20.4358V25.5642C5 26.3572 5.64283 27 6.4358 27H11.5642C12.3572 27 13 26.3572 13 25.5642V20.4358C13 19.6428 12.3572 19 11.5642 19Z" fill="#9794C6"/>
<path d="M11.0956 22.0553L8.98126 24.8482C8.8463 25.0244 8.64011 25.1331 8.41893 25.1443C8.40769 25.1443 8.39644 25.1443 8.38519 25.1443C8.17526 25.1443 7.97282 25.0543 7.83037 24.9006L6.94939 23.9334C6.67198 23.626 6.69072 23.1537 6.99813 22.8725C7.30553 22.5951 7.77788 22.6139 8.05905 22.9213L8.33271 23.2212L9.90347 21.1443C10.1546 20.8144 10.6232 20.7507 10.9531 20.9981C11.283 21.2493 11.3468 21.7179 11.0993 22.0478L11.0956 22.0553Z" fill="white"/>
<path d="M11.5642 32H6.4358C5.64283 32 5 32.6428 5 33.4358V38.5642C5 39.3572 5.64283 40 6.4358 40H11.5642C12.3572 40 13 39.3572 13 38.5642V33.4358C13 32.6428 12.3572 32 11.5642 32Z" fill="#9794C6"/>
<path d="M11.0956 35.0553L8.98126 37.8482C8.8463 38.0244 8.64011 38.1331 8.41893 38.1443C8.40769 38.1443 8.39644 38.1443 8.38519 38.1443C8.17526 38.1443 7.97282 38.0543 7.83037 37.9006L6.94939 36.9334C6.67198 36.626 6.69072 36.1537 6.99813 35.8725C7.30553 35.5951 7.77788 35.6139 8.05905 35.9213L8.33271 36.2212L9.90347 34.1443C10.1546 33.8144 10.6232 33.7507 10.9531 33.9981C11.283 34.2493 11.3468 34.7179 11.0993 35.0478L11.0956 35.0553Z" fill="white"/>
</g>
</svg>
