<?xml version="1.0" encoding="UTF-8"?><svg id="a" xmlns="http://www.w3.org/2000/svg" viewBox="0 0 129.71 100.45"><defs><style>.b{fill:#ce292a;}.c{fill:#3f52a4;}</style></defs><path class="b" d="M23.43,42.3c0-6.88,5.58-12.46,12.46-12.46s12.46,5.58,12.46,12.46-5.58,12.46-12.46,12.46-12.46-5.58-12.46-12.46Zm11.9,19.81c-10.78,0-19.53,4.06-19.53,9.07v12.49H54.85v-12.49c0-5.01-8.74-9.07-19.53-9.07ZM75.97,14.8s-.01,.09-.01,.13c0,.09,.01,.17,.01,.26,0,6.03-4.89,10.92-10.92,10.92s-10.92-4.89-10.92-10.92c0-.09,.01-.18,.01-.26,0-.04-.01-.09-.01-.13V3.62c0-1.99,1.63-3.62,3.62-3.62h14.61c1.99,0,3.62,1.63,3.62,3.62V14.8Zm-5.47,.1c0-3.01-2.44-5.45-5.45-5.45s-5.46,2.44-5.46,5.45,2.44,5.45,5.46,5.45,5.45-2.44,5.45-5.45Zm50.27-1.85h-39.03v4h39.03c2.72,0,4.94,2.22,4.94,4.94V91.51c0,2.72-2.22,4.94-4.94,4.94H8.94c-2.72,0-4.94-2.22-4.94-4.94V22c0-2.72,2.22-4.94,4.94-4.94H47.96v-4H8.94C4.01,13.06,0,17.07,0,22V91.51c0,4.93,4.01,8.94,8.94,8.94H120.77c4.93,0,8.94-4.01,8.94-8.94V22c0-4.93-4.01-8.94-8.94-8.94Zm-2.83,22.51h-52.9v7.78h52.9v-7.78Zm0,19.86h-52.9v7.78h52.9v-7.78Zm0,19.86h-52.9v7.78h52.9v-7.78Z"/><g><circle class="c" cx="35.88" cy="42.3" r="12.46" transform="translate(-11.62 70.94) rotate(-80.78)"/><path class="c" d="M35.33,62.1c-10.78,0-19.53,4.06-19.53,9.07v12.49H54.85v-12.49c0-5.01-8.74-9.07-19.53-9.07Z"/></g></svg>