<svg width="54" height="42" viewBox="0 0 54 42" fill="none" xmlns="http://www.w3.org/2000/svg">
<g clip-path="url(#clip0_5_63)">
<path d="M9.75422 17.6864C9.75422 14.8098 12.0772 12.4767 14.9415 12.4767C17.8057 12.4767 20.1287 14.8098 20.1287 17.6864C20.1287 20.5631 17.8057 22.8962 14.9415 22.8962C12.0772 22.8962 9.75422 20.5631 9.75422 17.6864ZM14.7083 25.9693C10.2205 25.9693 6.57775 27.6669 6.57775 29.7617V34.984H22.8348V29.7617C22.8348 27.6669 19.1962 25.9693 14.7042 25.9693H14.7083ZM31.6273 6.18815C31.6273 6.18815 31.6232 6.22578 31.6232 6.24251C31.6232 6.28014 31.6273 6.31359 31.6273 6.35122C31.6273 8.87247 29.5915 10.9171 27.0812 10.9171C24.5708 10.9171 22.535 8.87247 22.535 6.35122C22.535 6.31359 22.5392 6.27596 22.5392 6.24251C22.5392 6.22578 22.535 6.20488 22.535 6.18815V1.51359C22.535 0.681533 23.2136 0 24.0421 0H30.1244C30.9529 0 31.6315 0.681533 31.6315 1.51359V6.18815H31.6273ZM29.3501 6.22997C29.3501 4.97143 28.3343 3.95122 27.0812 3.95122C25.8281 3.95122 24.8081 4.97143 24.8081 6.22997C24.8081 7.4885 25.8239 8.50871 27.0812 8.50871C28.3384 8.50871 29.3501 7.4885 29.3501 6.22997ZM50.2782 5.45645H34.0294V7.12892H50.2782C51.4105 7.12892 52.3347 8.05714 52.3347 9.19443V38.262C52.3347 39.3993 51.4105 40.3275 50.2782 40.3275H3.72184C2.58947 40.3275 1.66525 39.3993 1.66525 38.262V9.19861C1.66525 8.06132 2.58947 7.1331 3.72184 7.1331H19.9664V5.46063H3.72184C1.66942 5.46063 0 7.13728 0 9.19861V38.262C0 40.3233 1.66942 42 3.72184 42H50.2782C52.3306 42 54 40.3233 54 38.262V9.19861C54 7.13728 52.3306 5.46063 50.2782 5.46063V5.45645ZM49.1 14.8683H27.077V18.1213H49.1V14.8683ZM49.1 23.1721H27.077V26.4251H49.1V23.1721ZM49.1 31.476H27.077V34.7289H49.1V31.476Z" fill="#E3C3B1"/>
<g clip-path="url(#clip1_5_63)">
<path d="M20.0986 18.712C20.5786 15.5573 18.5706 12.5849 15.6135 12.0728C12.6564 11.5607 9.87014 13.703 9.39014 16.8576C8.91014 20.0122 10.9182 22.9847 13.8753 23.4968C16.8323 24.0088 19.6186 21.8666 20.0986 18.712Z" fill="#9794C6"/>
<path d="M14.5022 26C9.80922 26 6 27.8856 6 30.2123V36.013H23V30.2123C23 27.8856 19.1951 26 14.4978 26H14.5022Z" fill="#9794C6"/>
</g>
</g>
<defs>
<clipPath id="clip0_5_63">
<rect width="54" height="42" fill="white"/>
</clipPath>
<clipPath id="clip1_5_63">
<rect width="17" height="25" fill="white" transform="translate(6 12)"/>
</clipPath>
</defs>
</svg>
